<svg width="36" height="36" viewBox="0 0 36 36" fill="none" xmlns="http://www.w3.org/2000/svg">
<path d="M17.6348 0.5C7.99227 0.5 0.134766 8.3575 0.134766 18C0.134766 27.6425 7.99227 35.5 17.6348 35.5C27.2773 35.5 35.1348 27.6425 35.1348 18C35.1348 8.3575 27.2773 0.5 17.6348 0.5ZM16.3223 11C16.3223 10.2825 16.9173 9.6875 17.6348 9.6875C18.3523 9.6875 18.9473 10.2825 18.9473 11V19.75C18.9473 20.4675 18.3523 21.0625 17.6348 21.0625C16.9173 21.0625 16.3223 20.4675 16.3223 19.75V11ZM19.2448 25.665C19.1573 25.8925 19.0348 26.0675 18.8773 26.2425C18.7023 26.4 18.5098 26.5225 18.2998 26.61C18.0898 26.6975 17.8623 26.75 17.6348 26.75C17.4073 26.75 17.1798 26.6975 16.9698 26.61C16.7598 26.5225 16.5673 26.4 16.3923 26.2425C16.2348 26.0675 16.1123 25.8925 16.0248 25.665C15.9373 25.455 15.8848 25.2275 15.8848 25C15.8848 24.7725 15.9373 24.545 16.0248 24.335C16.1123 24.125 16.2348 23.9325 16.3923 23.7575C16.5673 23.6 16.7598 23.4775 16.9698 23.39C17.3898 23.215 17.8798 23.215 18.2998 23.39C18.5098 23.4775 18.7023 23.6 18.8773 23.7575C19.0348 23.9325 19.1573 24.125 19.2448 24.335C19.3323 24.545 19.3848 24.7725 19.3848 25C19.3848 25.2275 19.3323 25.455 19.2448 25.665Z" fill="#F87474"/>
</svg>
