<svg width="40" height="40" viewBox="0 0 40 40" fill="none" xmlns="http://www.w3.org/2000/svg">
<path d="M20 0C8.96 0 0 8.96 0 20C0 31.04 8.96 40 20 40C31.04 40 40 31.04 40 20C40 8.96 31.04 0 20 0ZM27.06 20.06C26.76 20.36 26.38 20.5 26 20.5C25.62 20.5 25.24 20.36 24.94 20.06L21.5 16.62V27C21.5 27.82 20.82 28.5 20 28.5C19.18 28.5 18.5 27.82 18.5 27V16.62L15.06 20.06C14.48 20.64 13.52 20.64 12.94 20.06C12.36 19.48 12.36 18.52 12.94 17.94L18.94 11.94C19.52 11.36 20.48 11.36 21.06 11.94L27.06 17.94C27.64 18.52 27.64 19.48 27.06 20.06Z" fill="black"/>
</svg>
