<svg width="30" height="40" viewBox="0 0 30 40" fill="none" xmlns="http://www.w3.org/2000/svg">
<path fill-rule="evenodd" clip-rule="evenodd" d="M3.34672e-07 38.75V5C3.34672e-07 3.67392 0.526784 2.40215 1.46447 1.46447C2.40215 0.526784 3.67392 0 5 0L25 0C26.3261 0 27.5979 0.526784 28.5355 1.46447C29.4732 2.40215 30 3.67392 30 5V38.75C30.0002 38.9671 29.9438 39.1804 29.8364 39.3691C29.7291 39.5578 29.5745 39.7152 29.3878 39.826C29.2011 39.9367 28.9888 39.997 28.7717 40.0007C28.5547 40.0045 28.3404 39.9517 28.15 39.8475L15 32.6725L1.85 39.8475C1.65957 39.9517 1.4453 40.0045 1.22826 40.0007C1.01123 39.997 0.798917 39.9367 0.612229 39.826C0.425542 39.7152 0.270912 39.5578 0.163561 39.3691C0.0562113 39.1804 -0.000158485 38.9671 3.34672e-07 38.75ZM15.4 10.25C15.3635 10.175 15.3066 10.1118 15.2358 10.0676C15.1651 10.0234 15.0834 10 15 10C14.9166 10 14.8349 10.0234 14.7642 10.0676C14.6934 10.1118 14.6365 10.175 14.6 10.25L13.015 13.4625C12.9833 13.5275 12.9362 13.5838 12.8778 13.6264C12.8194 13.6691 12.7515 13.697 12.68 13.7075L9.13 14.2225C9.04828 14.2349 8.97162 14.2698 8.90863 14.3233C8.84564 14.3769 8.79879 14.4469 8.77336 14.5255C8.74792 14.6042 8.74489 14.6883 8.76461 14.7686C8.78433 14.8489 8.82602 14.9221 8.885 14.98L11.45 17.4825C11.555 17.585 11.6025 17.7325 11.5775 17.8775L10.975 21.4125C10.9614 21.4941 10.9709 21.5779 11.0023 21.6545C11.0337 21.731 11.0858 21.7973 11.1528 21.8459C11.2198 21.8944 11.299 21.9234 11.3815 21.9294C11.4641 21.9354 11.5467 21.9183 11.62 21.88L14.795 20.21C14.8587 20.1767 14.9294 20.1593 15.0012 20.1593C15.0731 20.1593 15.1438 20.1767 15.2075 20.21L18.3825 21.88C18.4558 21.9176 18.538 21.9342 18.6202 21.9278C18.7023 21.9215 18.781 21.8924 18.8476 21.844C18.9142 21.7955 18.9661 21.7295 18.9974 21.6533C19.0287 21.5772 19.0383 21.4938 19.025 21.4125L18.42 17.875C18.4072 17.804 18.412 17.7309 18.4337 17.6621C18.4555 17.5933 18.4937 17.5308 18.545 17.48L21.115 14.9775C21.174 14.9196 21.2157 14.8464 21.2354 14.7661C21.2551 14.6858 21.2521 14.6017 21.2266 14.523C21.2012 14.4444 21.1544 14.3744 21.0914 14.3208C21.0284 14.2673 20.9517 14.2324 20.87 14.22L17.32 13.705C17.2485 13.6945 17.1806 13.6666 17.1222 13.6239C17.0638 13.5813 17.0167 13.525 16.985 13.46L15.4 10.25Z" fill="black"/>
</svg>
