<svg width="35" height="35" viewBox="0 0 35 35" fill="none" xmlns="http://www.w3.org/2000/svg">
<path d="M17.5 0C7.8575 0 0 7.8575 0 17.5C0 27.1425 7.8575 35 17.5 35C27.1425 35 35 27.1425 35 17.5C35 7.8575 27.1425 0 17.5 0ZM16.1875 10.5C16.1875 9.7825 16.7825 9.1875 17.5 9.1875C18.2175 9.1875 18.8125 9.7825 18.8125 10.5V19.25C18.8125 19.9675 18.2175 20.5625 17.5 20.5625C16.7825 20.5625 16.1875 19.9675 16.1875 19.25V10.5ZM19.11 25.165C19.0225 25.3925 18.9 25.5675 18.7425 25.7425C18.5675 25.9 18.375 26.0225 18.165 26.11C17.955 26.1975 17.7275 26.25 17.5 26.25C17.2725 26.25 17.045 26.1975 16.835 26.11C16.625 26.0225 16.4325 25.9 16.2575 25.7425C16.1 25.5675 15.9775 25.3925 15.89 25.165C15.8025 24.955 15.75 24.7275 15.75 24.5C15.75 24.2725 15.8025 24.045 15.89 23.835C15.9775 23.625 16.1 23.4325 16.2575 23.2575C16.4325 23.1 16.625 22.9775 16.835 22.89C17.255 22.715 17.745 22.715 18.165 22.89C18.375 22.9775 18.5675 23.1 18.7425 23.2575C18.9 23.4325 19.0225 23.625 19.11 23.835C19.1975 24.045 19.25 24.2725 19.25 24.5C19.25 24.7275 19.1975 24.955 19.11 25.165Z" fill="#F87474"/>
</svg>
