<svg width="22" height="26" viewBox="0 0 22 26" fill="none" xmlns="http://www.w3.org/2000/svg">
<g id="&#240;&#159;&#166;&#134; icon &#34;location&#34;">
<g id="Group">
<path id="Vector" d="M10.998 15.6955C8.50004 15.6955 6.45947 13.6464 6.45947 11.1116C6.45947 8.57686 8.50004 6.53955 10.998 6.53955C13.496 6.53955 15.5365 8.5887 15.5365 11.1234C15.5365 13.6582 13.496 15.6955 10.998 15.6955ZM10.998 8.31627C9.47346 8.31627 8.21858 9.57182 8.21858 11.1234C8.21858 12.6751 9.46174 13.9307 10.998 13.9307C12.5343 13.9307 13.7774 12.6751 13.7774 11.1234C13.7774 9.57182 12.5226 8.31627 10.998 8.31627Z" fill="#292D32"/>
<path id="Vector_2" d="M10.9964 25.8703C9.26073 25.8703 7.51333 25.207 6.15295 23.8922C2.69337 20.5283 -1.12977 15.1626 0.312701 8.77822C1.61444 2.9861 6.62205 0.39209 10.9964 0.39209H11.0081C15.3824 0.39209 20.39 2.9861 21.6918 8.79006C23.1225 15.1744 19.2994 20.5283 15.8398 23.8922C14.4794 25.207 12.732 25.8703 10.9964 25.8703ZM10.9964 2.16881C7.5837 2.16881 3.19764 4.00476 2.03663 9.1691C0.77007 14.748 4.24138 19.557 7.38433 22.6011C9.41318 24.5792 12.5913 24.5792 14.6202 22.6011C17.7514 19.557 21.2227 14.748 19.9796 9.1691C18.8068 4.00476 14.4091 2.16881 10.9964 2.16881Z" fill="#292D32"/>
</g>
</g>
</svg>
