<?xml version="1.0" standalone="no"?>
<!DOCTYPE svg PUBLIC "-//W3C//DTD SVG 20010904//EN"
 "http://www.w3.org/TR/2001/REC-SVG-20010904/DTD/svg10.dtd">
<svg version="1.0" xmlns="http://www.w3.org/2000/svg"
 width="1000.000000pt" height="400.000000pt" viewBox="0 0 1000.000000 400.000000"
 preserveAspectRatio="xMidYMid meet">

<g transform="translate(0.000000,400.000000) scale(0.100000,-0.100000)"
fill="#000000" stroke="none">
<path d="M3413 3765 c-120 -26 -232 -102 -297 -200 -125 -188 -105 -443 49
-604 98 -103 220 -152 379 -152 145 -1 256 38 346 120 l45 41 -69 64 -70 65
-33 -30 c-119 -104 -298 -106 -411 -4 -66 59 -95 126 -95 220 -2 188 118 309
303 308 76 0 153 -29 196 -74 15 -16 33 -29 39 -29 6 0 39 29 74 64 l63 63
-36 35 c-109 106 -305 152 -483 113z"/>
<path d="M1270 3290 l0 -470 345 0 345 0 0 90 0 90 -235 0 -235 0 0 380 0 380
-110 0 -110 0 0 -470z"/>
<path d="M5050 3290 l0 -470 105 0 105 0 2 272 3 271 135 -222 135 -222 50 3
49 3 138 230 138 230 0 -282 0 -283 106 0 107 0 -6 403 c-4 221 -7 432 -7 470
l0 67 -89 0 -89 0 -167 -282 c-92 -156 -170 -286 -174 -290 -3 -4 -85 123
-181 282 l-175 290 -92 0 -93 0 0 -470z"/>
<path d="M6400 3291 l0 -471 110 0 110 0 0 130 0 130 123 0 c205 0 316 36 399
129 115 128 101 346 -29 460 -88 79 -120 85 -435 89 l-278 3 0 -470z m514 274
c55 -27 78 -64 84 -128 5 -59 -10 -97 -50 -133 -38 -34 -84 -44 -209 -44
l-119 0 0 166 0 166 128 -4 c100 -3 135 -8 166 -23z"/>
<path d="M2401 3549 c-138 -23 -252 -116 -297 -241 -23 -65 -21 -190 6 -260
25 -67 92 -145 154 -182 92 -54 220 -70 329 -41 170 44 272 162 284 329 16
203 -120 366 -330 397 -71 10 -73 10 -146 -2z m186 -195 c67 -49 97 -146 73
-233 -43 -162 -262 -189 -338 -41 -19 37 -23 57 -20 116 4 82 29 129 88 164
47 28 155 25 197 -6z"/>
<path d="M4361 3549 c-138 -23 -252 -116 -297 -241 -23 -65 -21 -190 6 -260
25 -67 92 -145 154 -182 92 -54 220 -70 329 -41 170 44 272 162 284 329 16
203 -120 366 -330 397 -71 10 -73 10 -146 -2z m186 -195 c67 -49 97 -146 73
-233 -43 -162 -262 -189 -338 -41 -19 37 -23 57 -20 116 4 82 29 129 88 164
47 28 155 25 197 -6z"/>
<path d="M7815 3549 c-63 -8 -111 -28 -152 -63 l-32 -27 -3 43 -3 43 -97 3
-98 3 0 -366 0 -365 105 0 105 0 0 200 c0 214 6 248 53 298 26 28 119 56 158
48 l29 -5 0 94 c0 51 -3 96 -7 98 -5 2 -30 0 -58 -4z"/>
<path d="M8321 3549 c-138 -23 -252 -116 -297 -241 -23 -65 -21 -190 6 -260
25 -67 92 -145 154 -182 92 -54 220 -70 329 -41 170 44 272 162 284 329 16
203 -120 366 -330 397 -71 10 -73 10 -146 -2z m186 -195 c67 -49 97 -146 73
-233 -43 -162 -262 -189 -338 -41 -19 37 -23 57 -20 116 4 82 29 129 88 164
47 28 155 25 197 -6z"/>
<path d="M200 2110 l0 -110 4800 0 4800 0 0 110 0 110 -4800 0 -4800 0 0 -110z"/>
<path d="M1351 1533 c-19 -49 -36 -91 -40 -95 -3 -4 -52 -10 -108 -14 -57 -4
-103 -10 -103 -14 0 -3 36 -35 80 -71 44 -35 80 -66 80 -69 0 -3 -11 -45 -25
-95 -14 -49 -25 -93 -25 -97 0 -16 21 -7 100 43 44 28 86 49 94 46 7 -3 45
-26 85 -51 64 -42 91 -54 91 -42 0 3 -11 47 -25 98 -14 51 -25 96 -25 99 0 3
36 34 79 69 44 35 78 67 75 71 -2 4 -50 10 -107 14 l-103 7 -34 94 c-19 52
-40 94 -46 94 -6 0 -25 -39 -43 -87z"/>
<path d="M2251 1533 c-19 -49 -36 -91 -40 -95 -3 -4 -52 -10 -108 -14 -57 -4
-103 -10 -103 -14 0 -3 36 -35 80 -71 44 -35 80 -66 80 -69 0 -3 -11 -45 -25
-95 -14 -49 -25 -93 -25 -97 0 -16 22 -7 91 38 40 25 78 48 85 51 8 3 50 -18
93 -46 77 -49 101 -60 101 -43 0 4 -11 47 -25 97 -14 49 -25 92 -25 95 0 3 36
34 79 70 44 35 78 67 75 71 -2 4 -50 10 -107 14 l-102 7 -35 94 c-19 52 -40
94 -46 94 -6 0 -25 -39 -43 -87z"/>
<path d="M3151 1533 c-19 -49 -36 -91 -40 -95 -3 -4 -52 -10 -108 -14 -57 -4
-103 -10 -103 -14 0 -3 36 -35 80 -71 44 -35 80 -66 80 -69 0 -3 -11 -45 -25
-95 -14 -49 -25 -93 -25 -97 0 -16 22 -7 91 38 40 25 78 48 85 51 8 3 50 -18
93 -46 77 -49 101 -60 101 -43 0 4 -11 47 -25 97 -14 49 -25 92 -25 95 0 3 36
34 79 70 44 35 78 67 75 71 -2 4 -50 10 -107 14 l-102 7 -35 94 c-19 52 -40
94 -46 94 -6 0 -25 -39 -43 -87z"/>
<path d="M6748 1528 l-35 -93 -106 -9 c-59 -5 -107 -12 -107 -16 0 -3 36 -35
80 -71 44 -35 80 -66 80 -69 0 -3 -11 -45 -25 -95 -14 -49 -25 -93 -25 -97 0
-16 22 -7 91 38 40 25 78 48 85 51 8 3 50 -18 93 -46 77 -49 101 -60 101 -43
0 4 -11 47 -25 97 -14 49 -25 92 -25 95 0 3 36 34 79 70 44 35 78 67 75 71 -2
4 -50 10 -107 14 l-102 7 -35 94 c-19 52 -40 94 -46 94 -6 0 -26 -42 -46 -92z"/>
<path d="M7651 1533 c-19 -49 -36 -91 -40 -95 -3 -4 -52 -10 -108 -14 -57 -4
-103 -10 -103 -14 0 -3 36 -35 80 -71 44 -35 80 -66 80 -69 0 -3 -11 -45 -25
-95 -14 -49 -25 -93 -25 -97 0 -16 22 -7 91 38 40 25 78 48 85 51 8 3 50 -18
93 -46 77 -49 101 -60 101 -43 0 4 -11 47 -25 97 -14 49 -25 92 -25 95 0 3 36
34 79 70 44 35 78 67 75 71 -2 4 -50 10 -107 14 l-102 7 -35 94 c-19 52 -40
94 -46 94 -6 0 -25 -39 -43 -87z"/>
<path d="M8551 1533 c-19 -49 -36 -91 -40 -95 -3 -4 -52 -10 -108 -14 -57 -4
-103 -10 -103 -14 0 -3 36 -35 80 -71 44 -35 80 -66 80 -69 0 -3 -11 -45 -25
-95 -14 -49 -25 -93 -25 -97 0 -16 22 -7 91 38 40 25 78 48 85 51 8 3 50 -18
93 -46 77 -49 101 -60 101 -43 0 4 -11 47 -25 97 -14 49 -25 92 -25 95 0 3 36
34 79 70 44 35 78 67 75 71 -2 4 -50 10 -107 14 l-102 7 -35 94 c-19 52 -40
94 -46 94 -6 0 -25 -39 -43 -87z"/>
<path d="M4125 1315 l-25 -24 0 -426 0 -426 25 -24 c15 -16 36 -25 55 -25 24
0 30 -4 30 -20 0 -12 7 -34 15 -50 14 -28 27 -34 80 -42 11 -2 21 -12 23 -23
15 -103 -44 -96 798 -93 l726 3 24 28 24 28 0 420 0 421 -29 29 c-17 16 -40
29 -54 29 -20 0 -26 6 -31 35 -8 41 -47 75 -87 75 -26 0 -29 3 -29 33 0 22 -8
41 -23 55 l-23 22 -738 0 -737 0 -24 -25z m1483 -37 c19 -19 17 -811 -2 -827
-9 -8 -208 -10 -727 -9 l-714 3 -3 410 c-1 225 0 416 3 422 6 18 1425 19 1443
1z m111 -112 c8 -9 10 -129 9 -422 l-3 -409 -725 0 -725 0 -3 28 -3 27 674 0
c667 0 675 0 701 21 l26 20 0 368 c0 202 3 371 7 374 11 11 30 8 42 -7z m121
-125 c16 -30 14 -782 -2 -804 -12 -16 -65 -17 -733 -15 l-720 3 0 25 0 25 685
5 c377 3 686 6 688 8 2 1 10 18 18 37 11 28 14 101 14 385 0 341 0 350 20 350
10 0 24 -9 30 -19z"/>
<path d="M4500 1175 c0 -53 1 -56 23 -53 19 3 22 9 22 53 0 44 -3 50 -22 53
-22 3 -23 0 -23 -53z"/>
<path d="M4642 1178 c3 -45 6 -53 23 -53 17 0 20 7 20 50 0 45 -2 50 -23 53
-22 3 -23 1 -20 -50z"/>
<path d="M4787 1224 c-4 -4 -7 -21 -7 -39 0 -23 -10 -41 -41 -70 -22 -22 -53
-62 -67 -90 -25 -45 -27 -60 -27 -160 0 -126 13 -162 90 -244 31 -33 44 -57
47 -81 2 -27 7 -35 23 -35 14 0 21 8 23 27 3 27 5 28 62 28 57 0 59 -1 62 -27
2 -20 9 -28 23 -28 16 0 21 8 23 42 3 34 9 46 37 67 20 15 48 54 67 93 30 61
33 76 33 158 0 82 -3 97 -33 157 -18 37 -47 79 -65 94 -24 20 -33 37 -37 68
-4 33 -9 42 -27 44 -20 3 -23 -1 -23 -27 l0 -31 -59 0 c-58 0 -60 1 -63 27 -3
27 -26 41 -41 27z m180 -122 c12 -7 37 -31 57 -54 86 -100 84 -271 -5 -371
-48 -55 -85 -71 -150 -65 -162 16 -239 274 -128 428 59 82 145 105 226 62z"/>
<path d="M5092 1178 c3 -45 6 -53 23 -53 17 0 20 7 20 50 0 45 -2 50 -23 53
-22 3 -23 1 -20 -50z"/>
<path d="M5234 1217 c-3 -8 -4 -32 -2 -53 2 -31 7 -39 23 -39 17 0 20 7 20 50
0 39 -4 50 -18 53 -9 2 -20 -3 -23 -11z"/>
<path d="M4216 1191 c-3 -5 -3 -17 0 -25 5 -14 21 -16 98 -14 83 3 91 5 91 23
0 18 -8 20 -92 23 -50 1 -94 -2 -97 -7z"/>
<path d="M5370 1175 l0 -26 93 3 c84 3 92 5 92 23 0 18 -8 20 -92 23 l-93 3 0
-26z"/>
<path d="M4328 935 c-34 -19 -58 -63 -58 -106 0 -22 10 -41 34 -65 28 -28 41
-34 78 -34 67 1 108 44 108 114 0 76 -94 129 -162 91z m90 -51 c44 -31 20
-104 -35 -104 -57 0 -82 61 -43 100 24 24 48 25 78 4z"/>
<path d="M5333 931 c-42 -26 -62 -86 -43 -131 19 -46 55 -70 107 -70 134 0
141 200 8 216 -29 4 -49 0 -72 -15z m106 -58 c34 -42 8 -95 -45 -95 -31 0 -64
33 -64 63 0 27 35 59 64 59 15 0 33 -11 45 -27z"/>
<path d="M4502 558 c3 -45 6 -53 23 -53 17 0 20 7 20 50 0 45 -2 50 -23 53
-22 3 -23 1 -20 -50z"/>
<path d="M4642 558 c3 -45 6 -53 23 -53 17 0 20 7 20 50 0 45 -2 50 -23 53
-22 3 -23 1 -20 -50z"/>
<path d="M5092 558 c3 -45 6 -53 23 -53 17 0 20 7 20 50 0 45 -2 50 -23 53
-22 3 -23 1 -20 -50z"/>
<path d="M5232 558 c3 -45 6 -53 23 -53 17 0 20 7 20 50 0 45 -2 50 -23 53
-22 3 -23 1 -20 -50z"/>
<path d="M4216 571 c-3 -5 -3 -17 0 -25 5 -14 21 -16 98 -14 83 3 91 5 91 23
0 18 -8 20 -92 23 -50 1 -94 -2 -97 -7z"/>
<path d="M5372 558 c3 -22 7 -23 93 -23 83 0 90 1 90 20 0 18 -8 20 -93 23
-92 3 -93 2 -90 -20z"/>
</g>
</svg>
