<svg width="40" height="41" viewBox="0 0 40 41" fill="none" xmlns="http://www.w3.org/2000/svg">
<g id="&#240;&#159;&#166;&#134; icon &#34;verify&#34;">
<path id="Vector" d="M39.1124 17.4861L36.3923 14.3259C35.8722 13.7258 35.4522 12.6058 35.4522 11.8057V8.40551C35.4522 6.28538 33.7121 4.54527 31.592 4.54527H28.1918C27.4117 4.54527 26.2717 4.12525 25.6716 3.60522L22.5114 0.885053C21.1313 -0.295018 18.8712 -0.295018 17.4711 0.885053L14.3309 3.62522C13.7308 4.12525 12.5908 4.54527 11.8107 4.54527H8.3505C6.23037 4.54527 4.49027 6.28538 4.49027 8.40551V11.8257C4.49027 12.6058 4.07024 13.7258 3.57021 14.3259L0.870052 17.5061C-0.290017 18.8862 -0.290017 21.1263 0.870052 22.5064L3.57021 25.6866C4.07024 26.2866 4.49027 27.4067 4.49027 28.1867V31.6069C4.49027 33.727 6.23037 35.4672 8.3505 35.4672H11.8107C12.5908 35.4672 13.7308 35.8872 14.3309 36.4072L17.4911 39.1274C18.8712 40.3074 21.1313 40.3074 22.5314 39.1274L25.6916 36.4072C26.2917 35.8872 27.4117 35.4672 28.2118 35.4672H31.612C33.7321 35.4672 35.4722 33.727 35.4722 31.6069V28.2067C35.4722 27.4267 35.8922 26.2866 36.4123 25.6866L39.1324 22.5264C40.2925 21.1463 40.2925 18.8662 39.1124 17.4861ZM28.3118 16.226L18.6512 25.8866C18.3712 26.1666 17.9912 26.3266 17.5911 26.3266C17.1911 26.3266 16.8111 26.1666 16.5311 25.8866L11.6907 21.0463C11.1107 20.4663 11.1107 19.5062 11.6907 18.9262C12.2707 18.3461 13.2308 18.3461 13.8108 18.9262L17.5911 22.7064L26.1917 14.1058C26.7717 13.5258 27.7317 13.5258 28.3118 14.1058C28.8918 14.6859 28.8918 15.6459 28.3118 16.226Z" fill="black"/>
</g>
</svg>
