<svg width="35" height="36" viewBox="0 0 35 36" fill="none" xmlns="http://www.w3.org/2000/svg">
<path d="M24.8449 0H10.1726C3.79939 0 0 3.79939 0 10.1726V24.8274C0 31.2181 3.79939 35.0174 10.1726 35.0174H24.8274C31.2005 35.0174 34.9999 31.2181 34.9999 24.8449V10.1726C35.0174 3.79939 31.2181 0 24.8449 0ZM8.75436 19.8024C7.49373 19.8024 6.46072 18.7694 6.46072 17.5087C6.46072 16.2481 7.49373 15.2151 8.75436 15.2151C10.015 15.2151 11.048 16.2481 11.048 17.5087C11.048 18.7694 10.015 19.8024 8.75436 19.8024ZM17.5087 19.8024C16.2481 19.8024 15.2151 18.7694 15.2151 17.5087C15.2151 16.2481 16.2481 15.2151 17.5087 15.2151C18.7694 15.2151 19.8024 16.2481 19.8024 17.5087C19.8024 18.7694 18.7694 19.8024 17.5087 19.8024ZM26.2631 19.8024C25.0025 19.8024 23.9694 18.7694 23.9694 17.5087C23.9694 16.2481 25.0025 15.2151 26.2631 15.2151C27.5237 15.2151 28.5567 16.2481 28.5567 17.5087C28.5567 18.7694 27.5237 19.8024 26.2631 19.8024Z" fill="#39A4F4"/>
</svg>
