<?xml version="1.0" standalone="no"?>
<!DOCTYPE svg PUBLIC "-//W3C//DTD SVG 20010904//EN"
 "http://www.w3.org/TR/2001/REC-SVG-20010904/DTD/svg10.dtd">
<svg version="1.0" xmlns="http://www.w3.org/2000/svg"
 width="4525.000000pt" height="3893.000000pt" viewBox="0 0 4525.000000 3893.000000"
 preserveAspectRatio="xMidYMid meet">

<g transform="translate(0.000000,3893.000000) scale(0.100000,-0.100000)"
fill="#000000" stroke="none">
<path d="M11385 38564 c-9 -14 -14 -28 -12 -30 3 -3 31 -4 63 -2 l59 3 -40 28
c-22 15 -43 27 -46 27 -4 0 -14 -12 -24 -26z"/>
<path d="M9039 38467 c-112 -97 -699 -720 -699 -743 0 -16 476 -522 935 -994
126 -129 468 -485 1110 -1155 116 -121 393 -409 616 -640 606 -631 1095 -1140
1374 -1430 138 -144 455 -474 705 -735 251 -261 674 -702 940 -980 536 -560
872 -910 1775 -1850 335 -349 713 -743 840 -875 745 -778 930 -971 1115 -1160
113 -115 404 -417 645 -670 242 -253 555 -579 695 -725 140 -146 462 -481 715
-745 253 -264 676 -705 940 -980 566 -590 1320 -1375 1595 -1661 107 -112 308
-320 445 -461 138 -142 403 -418 590 -613 711 -743 1284 -1341 1425 -1485 81
-82 315 -325 520 -540 608 -635 815 -850 995 -1035 157 -161 512 -530 1135
-1180 135 -140 405 -422 600 -625 196 -204 515 -536 710 -740 403 -421 706
-736 1095 -1140 149 -154 477 -496 730 -760 252 -264 524 -547 605 -630 80
-82 307 -319 505 -525 198 -206 484 -503 635 -660 151 -157 432 -449 625 -650
192 -201 428 -446 525 -545 97 -99 318 -328 490 -510 173 -181 368 -383 433
-450 l117 -120 177 180 c303 309 613 638 613 651 0 7 -19 25 -42 41 -23 15
-60 54 -81 85 -22 32 -62 77 -89 100 -27 24 -82 76 -121 116 -41 41 -91 82
-116 93 -32 14 -108 83 -269 247 -124 125 -243 250 -264 279 -22 28 -64 70
-94 94 -30 23 -54 45 -54 49 0 4 -48 60 -107 125 -58 65 -121 143 -139 173
-18 30 -52 70 -74 90 -23 19 -52 51 -64 71 -38 60 -182 216 -571 620 -203 212
-536 558 -740 770 -203 212 -534 557 -735 766 -201 209 -469 488 -595 620
-127 132 -412 429 -635 660 -408 422 -688 714 -1580 1645 -266 278 -604 629
-750 780 -146 151 -466 484 -710 740 -245 256 -521 544 -615 640 -93 96 -346
360 -561 585 -361 378 -466 482 -499 495 -25 10 -74 58 -98 97 -14 22 -47 54
-74 70 -26 17 -66 49 -88 73 -51 56 -416 428 -534 545 -49 50 -106 112 -125
139 -19 27 -58 69 -86 94 -29 25 -72 76 -95 112 -24 37 -64 85 -91 106 -26 21
-67 66 -91 99 -59 81 -224 259 -743 800 -1166 1215 -1549 1608 -1586 1628 -19
10 -46 36 -60 59 -35 55 -112 136 -146 154 -15 8 -44 39 -64 70 -20 30 -68 83
-106 117 -38 34 -96 95 -129 135 -33 40 -71 77 -85 82 -43 17 -94 61 -120 106
-17 28 -46 56 -89 82 -39 25 -82 64 -113 104 -28 34 -78 87 -112 116 -33 30
-79 78 -100 107 -22 30 -61 70 -87 90 -27 20 -68 59 -91 88 -24 29 -76 86
-116 128 -40 41 -85 95 -102 119 -16 24 -60 69 -97 99 -38 32 -85 83 -108 118
-22 34 -54 71 -72 82 -44 27 -100 90 -116 129 -8 18 -40 56 -71 85 -32 29 -75
75 -97 102 -47 59 -496 536 -738 785 -225 231 -1089 1129 -1660 1725 -126 132
-310 323 -410 425 -99 102 -299 308 -445 458 -145 150 -284 285 -308 300 -23
15 -59 51 -79 80 -22 35 -55 66 -92 89 -70 44 -116 88 -142 133 -11 19 -48 55
-81 79 -35 26 -83 76 -115 118 -29 40 -58 73 -64 73 -18 0 -101 85 -135 137
-21 32 -58 71 -97 99 -36 25 -77 66 -92 91 -16 24 -62 75 -103 111 -42 38 -87
90 -104 119 -28 49 -50 72 -112 116 -14 10 -51 56 -82 102 -30 47 -59 85 -64
85 -4 0 -64 62 -133 138 -148 164 -402 433 -822 872 -171 179 -369 388 -440
465 -71 77 -262 275 -425 440 -306 311 -386 393 -757 780 -121 127 -273 282
-339 345 -155 151 -200 196 -254 260 -25 31 -62 61 -86 72 -31 13 -51 32 -74
71 -36 59 -108 137 -126 137 -15 0 -47 40 -97 119 -30 48 -50 67 -89 87 -29
15 -56 38 -66 56 -33 59 -82 116 -130 151 -27 19 -76 70 -110 113 -33 44 -74
87 -91 97 -17 10 -47 39 -68 65 -81 101 -307 342 -902 962 -751 781 -1037
1070 -1060 1070 -4 0 -41 -29 -82 -63z"/>
<path d="M13268 36770 c-740 -3 -1350 -8 -1354 -12 -21 -22 70 -126 536 -607
157 -162 313 -324 347 -361 l63 -68 9859 -7 9859 -7 7 -32 c10 -49 18 -10862
10 -13446 l-8 -2325 -74 80 c-42 44 -123 134 -182 200 -58 66 -261 293 -451
505 -190 212 -433 484 -540 605 -458 519 -614 675 -674 675 -64 0 -132 -47
-294 -204 -245 -238 -488 -503 -1353 -1475 -672 -756 -629 -707 -629 -719 0
-16 82 -102 1975 -2072 996 -1037 2131 -2219 2523 -2628 392 -408 715 -742
718 -742 2 0 4 5096 4 11325 l0 11325 -9497 -2 c-5224 -2 -10104 -5 -10845 -8z
m20302 -1385 c-7 -9 -15 -13 -18 -10 -3 2 1 11 8 20 7 9 15 13 18 10 3 -2 -1
-11 -8 -20z m-490 -500 c-24 -25 -46 -45 -49 -45 -3 0 15 20 39 45 24 25 46
45 49 45 3 0 -15 -20 -39 -45z"/>
<path d="M10061 34751 c-8 -5 -17 -31 -22 -57 -4 -27 -8 -5092 -8 -11256 l-1
-11208 10882 0 10881 0 -59 62 c-32 35 -180 189 -329 343 -149 154 -376 390
-505 525 -442 462 -1294 1345 -1525 1580 -127 129 -251 258 -275 285 -70 80
-1121 1175 -1382 1441 -198 201 -246 244 -285 259 -123 46 -206 120 -350 310
-50 66 -154 194 -232 285 -78 91 -147 178 -155 195 -20 41 -62 79 -80 72 -8
-3 -274 -297 -591 -654 -1081 -1213 -1270 -1423 -1285 -1423 -19 0 -170 187
-1450 1795 -371 466 -882 1107 -1135 1425 -916 1148 -1656 2079 -1810 2275
-182 233 -285 353 -302 354 -7 1 -13 7 -13 15 0 8 -21 42 -47 77 -40 55 -1670
2106 -2953 3715 -228 287 -534 671 -680 855 -325 409 -516 643 -564 689 -31
29 -38 32 -50 20 -23 -26 -282 -350 -891 -1115 -324 -407 -694 -873 -823
-1035 -130 -162 -261 -327 -293 -367 -167 -207 -261 -326 -314 -398 -32 -44
-91 -118 -130 -165 -40 -47 -170 -209 -290 -360 -328 -413 -1156 -1451 -1526
-1915 -180 -225 -343 -425 -362 -443 l-34 -33 -7 43 c-3 24 -9 2934 -13 6466
l-6 6424 -195 201 c-107 111 -313 320 -456 465 -227 227 -265 262 -291 262
-16 0 -36 -4 -44 -9z m1464 -22322 c-22 -22 -67 -64 -100 -92 -50 -42 -45 -35
30 41 49 51 94 92 99 92 6 0 -8 -18 -29 -41z m11560 -169 c3 -5 1 -10 -4 -10
-6 0 -11 5 -11 10 0 6 2 10 4 10 3 0 8 -4 11 -10z"/>
<path d="M21610 32983 c-19 -2 -87 -13 -150 -24 -439 -76 -782 -257 -1133
-598 -241 -234 -405 -487 -529 -814 -134 -356 -179 -778 -124 -1170 16 -110
70 -330 109 -442 201 -574 648 -1057 1193 -1290 287 -123 434 -154 774 -162
356 -8 474 8 756 103 357 120 601 284 897 602 145 155 254 315 353 517 110
224 209 540 203 650 -1 22 4 54 12 70 18 42 25 427 9 565 -59 515 -269 963
-625 1338 -174 182 -327 300 -535 410 -241 128 -443 192 -742 237 -90 14 -372
18 -468 8z"/>
<path d="M6140 10179 c-47 -7 -206 -22 -458 -45 -95 -9 -114 -29 -119 -130 -3
-43 2 -288 11 -544 20 -573 20 -937 1 -1455 -8 -220 -15 -457 -15 -527 l0
-126 38 -24 c37 -23 39 -23 406 -26 l369 -3 35 33 34 33 -6 470 c-4 259 -11
558 -16 665 -5 107 -7 196 -5 198 5 5 159 -190 365 -463 491 -649 694 -903
729 -913 14 -4 171 -7 348 -7 l323 0 25 25 25 25 5 370 c15 1060 30 2219 29
2289 -1 73 -3 81 -28 103 -26 22 -34 23 -179 23 -84 -1 -251 -5 -373 -9 -231
-9 -273 -18 -288 -58 -11 -28 -7 -338 9 -698 8 -181 15 -408 15 -504 l0 -173
-57 73 c-31 41 -238 320 -460 621 -474 644 -556 752 -586 773 -23 16 -86 18
-177 4z"/>
<path d="M27696 9917 c-45 -45 -50 -89 -48 -392 2 -327 2 -327 -73 -336 -65
-9 -100 -25 -116 -57 -18 -32 -16 -465 1 -518 14 -42 28 -50 105 -58 109 -13
98 39 90 -430 -5 -287 -3 -432 4 -481 34 -210 189 -335 466 -376 194 -28 502
28 695 127 75 38 104 61 114 89 12 32 36 293 36 388 0 137 -14 143 -245 111
-143 -21 -203 -15 -246 24 -40 36 -49 98 -49 340 l0 192 188 0 c103 0 204 3
225 7 64 10 68 22 79 290 9 234 5 365 -12 393 -8 12 -53 16 -250 18 l-242 3 9
207 c11 276 10 337 -5 355 -14 16 -88 31 -357 72 -93 14 -186 30 -205 35 -19
5 -58 11 -87 15 -47 6 -55 4 -77 -18z"/>
<path d="M12765 9438 c-157 -18 -386 -106 -501 -194 -130 -98 -234 -225 -274
-331 -19 -51 -21 -74 -18 -208 3 -147 4 -151 36 -217 19 -36 77 -119 130 -183
161 -194 192 -242 192 -290 0 -48 -25 -87 -71 -111 -16 -8 -93 -28 -170 -45
-213 -45 -234 -58 -209 -137 38 -118 237 -422 304 -463 95 -58 411 26 636 169
88 55 190 142 231 198 69 91 117 276 104 402 -15 151 -66 249 -245 462 -124
149 -130 157 -130 202 0 28 8 47 32 74 52 59 96 74 221 74 103 0 109 1 132 26
35 37 39 73 16 131 -34 86 -218 391 -254 421 -23 20 -91 28 -162 20z"/>
<path d="M14260 9380 c-188 -25 -342 -94 -489 -220 -116 -100 -186 -190 -246
-315 -101 -211 -121 -314 -113 -603 5 -157 8 -186 32 -260 78 -239 196 -406
383 -541 52 -38 172 -98 243 -123 295 -102 730 -84 974 39 128 65 225 142 257
205 17 34 18 44 8 76 -29 92 -175 357 -223 405 -28 28 -66 20 -187 -37 -63
-29 -142 -63 -176 -74 -141 -48 -332 -35 -441 32 -62 37 -99 72 -89 82 3 4
181 21 394 40 462 39 561 50 632 70 75 21 97 38 127 100 26 54 27 57 21 207
-8 210 -45 334 -146 488 -216 327 -563 482 -961 429z m198 -632 c69 -33 147
-159 116 -188 -5 -4 -81 -13 -169 -19 -88 -6 -186 -14 -219 -17 l-58 -5 7 48
c15 101 77 173 175 204 35 11 97 1 148 -23z"/>
<path d="M17490 9384 c-133 -17 -291 -71 -382 -131 -94 -62 -196 -151 -255
-222 -59 -71 -147 -240 -188 -361 -31 -93 -50 -313 -41 -482 19 -343 228 -664
531 -816 169 -84 395 -128 615 -118 305 12 518 84 675 227 60 55 85 94 85 131
0 46 -165 360 -223 426 -32 35 -75 28 -195 -32 -182 -91 -300 -117 -447 -97
-90 13 -184 53 -237 103 l-33 32 40 8 c22 4 182 19 355 33 660 54 703 62 761
153 l31 47 -4 175 c-4 159 -7 182 -32 255 -91 266 -269 471 -507 584 -123 59
-219 81 -379 85 -74 3 -151 2 -170 0z m177 -631 c53 -25 133 -131 133 -177 0
-21 -16 -24 -180 -35 -80 -6 -173 -13 -207 -16 l-63 -4 0 46 c0 84 70 169 164
199 46 15 104 10 153 -13z"/>
<path d="M21990 9370 c-99 -14 -231 -55 -322 -101 -252 -127 -435 -351 -524
-645 -26 -85 -28 -99 -28 -304 0 -234 7 -287 53 -407 58 -150 193 -342 302
-431 111 -89 297 -180 428 -208 79 -16 327 -19 436 -3 148 20 306 70 359 112
50 41 48 139 -10 407 -28 130 -49 192 -76 233 -23 32 -48 36 -48 5 0 -20 -1
-21 -20 -3 -19 18 -23 17 -112 -10 -133 -41 -248 -42 -336 -1 -115 53 -173
142 -180 277 -6 128 14 188 87 260 38 37 73 61 106 72 72 25 184 22 301 -8
168 -43 189 -35 228 85 38 116 105 366 112 419 6 44 3 51 -25 83 -33 37 -117
86 -192 112 -140 46 -406 74 -539 56z"/>
<path d="M9357 9349 c-241 -35 -472 -174 -620 -374 -73 -98 -107 -166 -155
-303 l-37 -107 0 -250 c0 -275 4 -301 63 -445 48 -115 109 -206 204 -301 109
-109 165 -149 290 -209 156 -74 211 -84 473 -85 247 0 256 2 445 81 256 108
459 344 542 630 21 73 23 98 23 329 0 293 -8 335 -100 514 -119 233 -315 398
-575 485 -125 41 -393 59 -553 35z m320 -713 c50 -25 114 -96 141 -154 24 -51
27 -68 27 -172 0 -106 -2 -118 -27 -160 -37 -64 -127 -146 -174 -159 -129 -36
-238 15 -326 152 -33 51 -33 52 -33 177 0 118 2 128 27 170 36 62 117 138 164
156 47 18 159 12 201 -10z"/>
<path d="M23700 9348 c-89 -12 -230 -61 -315 -108 -212 -118 -363 -303 -450
-550 l-40 -115 0 -280 0 -280 44 -108 c119 -298 375 -530 668 -608 108 -29
409 -38 534 -16 100 17 277 89 371 149 71 46 188 163 254 255 54 75 115 202
145 303 30 103 38 405 15 559 -28 186 -116 360 -250 500 -127 131 -230 197
-407 259 -136 48 -390 66 -569 40z m333 -717 c53 -33 104 -92 134 -156 25 -54
28 -70 28 -165 -1 -125 -15 -160 -103 -250 -66 -67 -113 -85 -205 -77 -74 7
-132 41 -185 109 -65 84 -75 118 -75 234 0 87 4 109 24 150 30 59 109 140 163
166 54 25 170 19 219 -11z"/>
<path d="M35637 9349 c-241 -35 -472 -174 -620 -374 -73 -98 -107 -166 -155
-303 l-37 -107 0 -250 c0 -275 4 -301 63 -445 59 -142 132 -240 270 -363 68
-62 113 -91 207 -138 169 -83 221 -93 490 -94 247 0 256 2 445 81 256 108 459
344 542 630 21 73 23 98 23 329 0 293 -8 335 -100 514 -119 233 -315 398 -575
485 -125 41 -393 59 -553 35z m320 -713 c50 -25 114 -96 141 -154 24 -51 27
-68 27 -172 0 -106 -2 -118 -27 -160 -37 -64 -127 -146 -174 -159 -129 -36
-238 15 -326 152 -33 51 -33 52 -33 177 0 118 2 128 27 170 36 62 117 138 164
156 47 18 159 12 201 -10z"/>
<path d="M29815 9335 c-5 -3 -116 -23 -245 -45 -396 -68 -390 -66 -425 -100
l-31 -30 22 -102 c59 -263 73 -462 74 -1058 0 -461 8 -635 29 -661 9 -10 39
-24 66 -29 78 -16 386 -23 534 -12 189 14 177 -6 171 280 -3 125 -5 349 -5
497 1 381 -4 374 252 376 195 1 258 9 286 37 20 21 22 34 29 220 4 108 12 266
18 349 13 190 9 204 -77 229 -106 31 -258 -1 -462 -97 -57 -27 -105 -49 -107
-49 -1 0 -8 26 -14 58 -22 105 -65 156 -115 137z"/>
<path d="M31560 9330 c-102 -12 -253 -63 -344 -115 -301 -171 -461 -454 -483
-851 -18 -338 78 -615 290 -832 176 -180 367 -266 592 -266 169 0 292 40 433
141 40 29 75 53 77 53 2 0 8 -23 14 -51 14 -66 40 -108 69 -116 37 -9 562 4
606 15 23 6 50 24 67 44 l28 33 -7 165 c-4 91 -7 415 -7 720 0 477 3 571 18
668 19 127 22 205 7 232 -5 10 -31 25 -57 34 -119 39 -464 106 -543 106 -48 0
-83 -34 -105 -101 -9 -27 -18 -49 -21 -49 -2 0 -25 16 -51 36 -148 113 -356
161 -583 134z m409 -714 c48 -25 115 -97 141 -153 19 -40 23 -65 23 -143 0
-52 -5 -108 -12 -125 -22 -54 -82 -121 -138 -155 -51 -31 -65 -35 -149 -38
-86 -4 -99 -2 -148 22 -60 29 -132 102 -162 163 -12 25 -20 67 -22 125 -4 81
-2 93 26 150 34 73 77 120 141 154 43 23 54 24 156 21 79 -3 120 -9 144 -21z"/>
<path d="M33885 9330 c-22 -5 -161 -29 -310 -54 -282 -48 -324 -60 -349 -98
-14 -22 -13 -36 14 -170 16 -80 34 -186 40 -234 6 -49 15 -375 20 -726 5 -391
13 -652 19 -676 8 -29 19 -43 39 -51 70 -28 343 -38 591 -22 107 7 115 9 137
35 22 25 24 36 24 139 0 62 -5 229 -10 372 -12 294 -3 501 23 552 11 20 29 35
49 41 18 6 119 12 225 15 205 4 228 10 254 59 7 14 15 115 20 272 4 138 11
292 15 342 8 103 1 125 -49 151 -47 26 -181 23 -280 -5 -43 -12 -132 -47 -198
-77 -80 -36 -121 -50 -124 -42 -2 7 -11 38 -19 69 -16 57 -58 119 -79 117 -7
-1 -30 -5 -52 -9z"/>
<path d="M19360 9299 c-85 -16 -229 -41 -320 -55 -202 -30 -237 -39 -250 -64
-15 -28 -12 -93 10 -210 35 -191 42 -325 47 -970 5 -711 -1 -655 82 -687 40
-16 82 -18 336 -18 287 0 290 0 323 23 17 13 38 33 45 45 9 17 13 158 15 584
l4 563 42 35 c65 53 131 79 203 79 73 1 107 -19 138 -80 18 -37 20 -72 30
-614 5 -316 14 -581 19 -589 24 -37 74 -44 353 -49 297 -5 343 0 402 45 l34
26 -6 728 c-4 455 -11 754 -18 800 -26 171 -156 325 -328 390 -105 39 -187 51
-326 46 -172 -5 -238 -29 -522 -189 l-51 -29 -12 73 c-15 88 -33 126 -66 138
-14 6 -26 10 -27 9 -1 0 -72 -14 -157 -30z"/>
<path d="M25720 9299 c-85 -16 -229 -41 -320 -55 -202 -30 -237 -39 -250 -64
-15 -28 -12 -93 10 -210 35 -191 42 -325 47 -970 5 -711 -1 -655 82 -687 40
-16 82 -18 336 -18 287 0 290 0 323 23 17 13 38 33 45 45 9 17 13 158 15 584
l4 563 42 35 c65 53 131 79 203 79 73 1 107 -19 138 -80 18 -37 20 -72 30
-614 5 -316 14 -581 19 -589 24 -37 74 -44 353 -49 297 -5 343 0 402 45 l34
26 -6 728 c-4 455 -11 754 -18 800 -26 171 -156 325 -328 390 -105 39 -187 51
-326 46 -172 -5 -238 -29 -522 -189 l-51 -29 -12 73 c-15 88 -33 126 -66 138
-14 6 -26 10 -27 9 -1 0 -72 -14 -157 -30z"/>
<path d="M37640 9294 c-102 -18 -250 -43 -330 -55 -245 -36 -244 -33 -206
-259 40 -242 47 -373 53 -1015 5 -586 6 -601 26 -622 40 -44 74 -48 387 -48
273 0 297 1 323 19 62 42 60 27 65 639 l4 559 57 44 c135 107 294 95 332 -25
8 -24 14 -222 18 -603 7 -634 2 -593 80 -620 40 -14 585 -19 633 -6 14 5 40
20 57 34 l31 26 0 707 c0 430 -4 740 -10 791 -22 175 -129 325 -283 399 -112
54 -222 74 -372 68 -158 -5 -211 -22 -421 -132 -79 -42 -149 -73 -154 -70 -6
3 -10 19 -10 34 0 51 -30 129 -57 150 -14 12 -28 21 -32 20 -3 0 -89 -16 -191
-35z"/>
<path d="M40096 5412 c-3 -5 -52 -12 -108 -15 -90 -4 -248 -17 -542 -45 -129
-12 -120 22 -124 -498 -1 -239 -5 -434 -8 -434 -3 0 -24 13 -47 29 -123 84
-202 104 -417 104 -137 0 -178 -4 -245 -21 -356 -96 -608 -402 -672 -817 -18
-120 -13 -353 11 -460 47 -215 122 -358 270 -514 111 -116 236 -190 391 -232
112 -30 399 -33 489 -6 62 19 172 72 238 113 21 14 43 22 47 19 5 -2 12 -20
15 -39 10 -54 39 -82 98 -96 58 -14 569 -8 622 8 21 6 32 17 38 38 4 16 1 128
-7 249 -31 476 -28 1681 6 2165 7 91 12 223 13 294 l1 130 -32 18 c-17 10 -34
15 -37 10z m-938 -1577 c66 -36 117 -91 150 -164 39 -82 37 -191 -2 -279 -35
-77 -114 -153 -182 -176 -60 -20 -154 -21 -202 -1 -89 38 -174 161 -187 273
-16 148 63 309 179 364 62 29 174 21 244 -17z"/>
<path d="M24364 5343 c-58 -11 -65 -52 -43 -261 5 -53 16 -628 24 -1277 9
-735 18 -1199 25 -1230 5 -27 17 -55 26 -62 24 -18 183 -26 421 -20 215 4 282
14 312 43 12 11 16 171 22 1036 5 563 13 1120 19 1238 5 118 13 276 16 350 l7
135 -26 28 -26 27 -378 -1 c-208 -1 -388 -4 -399 -6z"/>
<path d="M30086 5288 c-114 -16 -256 -120 -307 -224 -21 -42 -24 -63 -24 -154
0 -99 2 -110 33 -172 68 -139 209 -218 385 -218 164 1 274 37 345 114 76 83
87 114 87 256 0 107 -4 132 -22 172 -42 91 -141 174 -247 208 -52 17 -190 27
-250 18z"/>
<path d="M1962 5271 c-118 -44 -221 -147 -254 -254 -42 -141 -1 -285 111 -389
89 -83 152 -103 316 -102 160 0 223 17 297 77 37 30 63 63 88 112 34 66 35 72
34 174 -1 185 -56 276 -211 353 -84 42 -86 42 -206 45 -102 3 -131 0 -175 -16z"/>
<path d="M18655 4624 c-88 -19 -249 -83 -329 -131 -155 -93 -259 -200 -326
-336 -36 -73 -41 -93 -46 -177 -8 -117 8 -224 43 -293 26 -54 100 -152 218
-292 81 -96 110 -153 102 -203 -12 -72 -45 -90 -245 -133 -179 -38 -212 -54
-212 -102 0 -83 229 -446 313 -498 99 -60 436 35 662 187 208 139 290 272 302
489 12 207 -36 314 -249 566 -91 107 -128 167 -128 204 0 24 71 96 115 116 31
14 65 19 147 19 117 0 129 5 154 67 12 29 12 38 -5 82 -52 130 -238 426 -277
442 -37 13 -158 10 -239 -7z"/>
<path d="M43651 4625 c-295 -64 -552 -243 -662 -461 l-44 -86 -3 -142 c-5
-205 9 -238 216 -486 115 -138 157 -212 146 -257 -18 -74 -64 -98 -257 -137
-146 -29 -195 -49 -203 -81 -15 -62 232 -470 314 -517 42 -25 127 -23 247 7
161 39 285 94 430 190 204 135 289 290 289 525 1 186 -42 275 -253 524 -50 59
-99 122 -107 138 -21 41 -12 93 23 130 50 53 78 62 213 68 l124 5 23 34 c13
19 23 47 23 63 0 58 -213 427 -275 476 -23 18 -40 22 -104 21 -42 0 -105 -7
-140 -14z"/>
<path d="M12130 4584 c-133 -17 -291 -71 -382 -131 -94 -62 -196 -151 -255
-222 -59 -71 -147 -240 -188 -361 -31 -93 -50 -313 -41 -482 19 -343 228 -664
531 -816 169 -84 395 -128 615 -118 305 12 518 84 675 227 60 55 85 94 85 131
0 46 -165 360 -223 426 -32 35 -75 28 -195 -32 -182 -91 -300 -117 -447 -97
-90 13 -184 53 -237 103 l-33 32 40 8 c22 4 182 19 355 33 660 54 703 62 761
153 l31 47 -4 175 c-4 159 -7 182 -32 255 -91 266 -269 471 -507 584 -123 59
-219 81 -379 85 -74 3 -151 2 -170 0z m177 -631 c53 -25 133 -131 133 -177 0
-21 -16 -24 -180 -35 -80 -6 -173 -13 -207 -16 l-63 -4 0 46 c0 84 70 169 164
199 46 15 104 10 153 -13z"/>
<path d="M16620 4583 c-144 -16 -347 -97 -454 -182 -75 -60 -191 -180 -235
-245 -57 -83 -131 -259 -153 -364 -17 -84 -19 -127 -16 -317 4 -209 5 -224 32
-305 112 -339 333 -560 661 -663 249 -78 612 -72 851 15 98 35 221 109 287
172 49 48 67 80 67 122 0 49 -148 333 -217 414 -36 43 -71 39 -194 -21 -197
-97 -304 -121 -454 -100 -92 13 -164 45 -226 100 l-44 38 50 7 c28 4 187 18
355 31 685 57 717 65 770 188 21 48 22 61 16 192 -8 161 -29 250 -86 372 -113
242 -325 429 -580 512 -100 33 -297 49 -430 34z m129 -614 c82 -17 180 -121
181 -191 0 -23 -13 -25 -180 -37 -80 -6 -174 -13 -209 -16 l-64 -5 6 51 c11
92 69 161 164 195 47 16 42 16 102 3z"/>
<path d="M23010 4584 c-133 -17 -291 -71 -382 -131 -94 -62 -196 -151 -255
-222 -59 -71 -147 -240 -188 -361 -31 -93 -50 -313 -41 -482 19 -343 228 -664
531 -816 169 -84 395 -128 615 -118 305 12 518 84 675 227 60 55 85 94 85 131
0 46 -165 360 -223 426 -32 35 -75 28 -195 -32 -182 -91 -300 -117 -447 -97
-90 13 -184 53 -237 103 l-33 32 40 8 c22 4 182 19 355 33 660 54 703 62 761
153 l31 47 -4 175 c-4 159 -7 182 -32 255 -91 266 -269 471 -507 584 -123 59
-219 81 -379 85 -74 3 -151 2 -170 0z m177 -631 c53 -25 133 -131 133 -177 0
-21 -16 -24 -180 -35 -80 -6 -173 -13 -207 -16 l-63 -4 0 46 c0 84 70 169 164
199 46 15 104 10 153 -13z"/>
<path d="M28762 4569 c-146 -19 -303 -78 -431 -163 -72 -48 -217 -192 -268
-266 -92 -135 -158 -317 -175 -484 -16 -154 2 -388 38 -494 69 -206 222 -419
378 -525 71 -48 238 -128 321 -154 51 -15 93 -18 285 -17 217 1 229 2 340 31
132 35 212 72 236 108 44 67 -33 513 -106 615 -25 35 -50 39 -50 8 0 -21 -1
-21 -14 -3 -13 19 -16 18 -117 -10 -207 -59 -356 -31 -448 85 -79 100 -94 257
-37 375 32 64 112 135 175 154 63 18 177 13 289 -14 124 -30 163 -31 186 -7
33 38 156 456 156 534 0 29 -8 45 -34 72 -110 110 -473 188 -724 155z"/>
<path d="M31677 4549 c-241 -35 -472 -174 -620 -374 -73 -98 -107 -166 -155
-303 l-37 -107 0 -250 c0 -275 4 -301 63 -445 59 -142 132 -240 270 -363 68
-62 113 -91 207 -138 169 -83 221 -93 490 -94 247 0 256 2 445 81 256 108 459
344 542 630 21 73 23 98 23 329 0 293 -8 335 -100 514 -119 233 -315 398 -575
485 -125 41 -393 59 -553 35z m320 -713 c50 -25 114 -96 141 -154 24 -51 27
-68 27 -172 0 -106 -2 -118 -27 -160 -37 -64 -127 -146 -174 -159 -129 -36
-238 15 -326 152 -33 51 -33 52 -33 177 0 118 2 128 27 170 36 62 117 138 164
156 47 18 159 12 201 -10z"/>
<path d="M4160 4525 c-128 -29 -231 -77 -367 -172 -51 -35 -93 -63 -93 -61 -2
71 -23 175 -41 200 -22 30 -23 31 -88 25 -36 -3 -115 -17 -176 -31 -60 -15
-183 -37 -273 -51 -170 -26 -216 -41 -227 -76 -9 -29 -7 -140 5 -232 14 -112
20 -326 29 -990 7 -495 10 -591 23 -603 26 -27 138 -38 388 -38 254 -1 335 8
362 41 10 13 14 138 16 594 l4 578 49 46 c65 61 119 85 192 85 70 0 110 -20
133 -68 24 -50 33 -270 34 -770 l0 -443 24 -24 c33 -33 85 -37 411 -33 271 3
281 4 317 26 l37 23 3 552 c4 622 2 605 80 672 57 48 98 65 160 65 65 0 113
-27 133 -73 27 -65 35 -229 35 -711 l0 -486 28 -30 c37 -41 106 -50 393 -50
247 0 306 9 349 55 l23 25 -6 789 -5 790 -37 69 c-41 79 -148 192 -221 233
-25 15 -78 37 -117 50 -65 21 -91 24 -252 24 l-180 0 -88 -37 c-121 -51 -204
-98 -293 -169 l-76 -61 -15 24 c-34 50 -141 145 -199 175 -122 65 -346 97
-474 68z"/>
<path d="M7252 4529 c-364 -42 -673 -307 -777 -665 -89 -308 -62 -653 72 -902
167 -311 452 -496 763 -496 163 0 284 40 434 144 40 27 75 50 79 50 4 0 7 -15
7 -32 1 -45 33 -114 61 -128 28 -16 566 -8 618 9 19 6 48 24 65 40 l31 30 -6
143 c-4 79 -10 350 -14 603 -8 475 -1 659 31 874 18 123 13 165 -22 188 -49
31 -480 123 -581 123 -36 0 -46 -5 -66 -32 -14 -18 -31 -51 -38 -73 -7 -22
-14 -41 -15 -43 -1 -2 -37 21 -81 51 -157 107 -331 143 -561 116z m422 -723
c57 -33 125 -118 143 -178 15 -52 17 -159 3 -210 -17 -61 -90 -149 -151 -183
-46 -25 -68 -30 -146 -33 -111 -5 -157 13 -233 90 -75 77 -95 125 -95 233 1
78 4 97 28 145 37 72 80 117 142 147 45 22 60 24 156 20 94 -3 111 -7 153 -31z"/>
<path d="M9610 4534 c-107 -20 -179 -43 -265 -84 -238 -114 -398 -325 -460
-605 -24 -110 -17 -406 13 -505 100 -332 371 -586 681 -636 110 -18 192 -18
314 1 89 13 238 62 262 86 20 20 45 10 45 -18 0 -36 -77 -109 -160 -151 -83
-41 -169 -56 -290 -48 -163 11 -185 17 -434 106 -130 47 -149 34 -195 -131
-34 -124 -61 -260 -61 -310 0 -113 105 -163 480 -230 168 -29 204 -32 395 -33
192 0 221 2 337 27 70 15 158 38 195 52 308 116 480 365 512 740 11 134 31
1024 31 1385 -1 214 -3 225 -46 248 -43 23 -640 87 -703 76 -27 -5 -37 -15
-52 -48 -10 -22 -19 -51 -19 -63 0 -32 -13 -29 -73 16 -67 51 -139 86 -213
106 -59 16 -246 28 -294 19z m463 -671 c61 -34 101 -82 127 -151 54 -143 -7
-300 -144 -369 -43 -22 -60 -24 -127 -21 -71 3 -82 6 -135 43 -46 32 -65 53
-91 103 -28 55 -33 74 -33 135 1 141 85 254 215 288 50 13 135 1 188 -28z"/>
<path d="M21215 4535 c-5 -3 -116 -23 -245 -45 -396 -68 -390 -66 -425 -100
l-31 -30 22 -102 c59 -263 73 -462 74 -1058 0 -461 8 -635 29 -661 9 -10 39
-24 66 -29 78 -16 386 -23 534 -12 189 14 177 -6 171 280 -3 125 -5 349 -5
497 1 381 -4 374 252 376 195 1 258 9 286 37 20 21 22 34 29 220 4 108 12 266
18 349 13 190 9 204 -77 229 -106 31 -258 -1 -462 -97 -57 -27 -105 -49 -107
-49 -1 0 -8 26 -14 58 -22 105 -65 156 -115 137z"/>
<path d="M26252 4529 c-364 -42 -673 -307 -777 -665 -89 -308 -62 -653 72
-902 167 -311 452 -496 763 -496 163 0 284 40 434 144 40 27 75 50 79 50 4 0
7 -15 7 -32 1 -45 33 -114 61 -128 28 -16 566 -8 618 9 19 6 48 24 65 40 l31
30 -6 143 c-4 79 -10 350 -14 603 -8 475 -1 659 31 874 18 123 13 165 -22 188
-49 31 -480 123 -581 123 -36 0 -46 -5 -66 -32 -14 -18 -31 -51 -38 -73 -7
-22 -14 -41 -15 -43 -1 -2 -37 21 -81 51 -157 107 -331 143 -561 116z m422
-723 c58 -34 131 -125 145 -182 14 -54 14 -158 1 -206 -17 -61 -90 -149 -151
-183 -46 -25 -68 -30 -146 -33 -111 -5 -157 13 -233 90 -75 77 -95 125 -95
233 1 78 4 97 28 145 37 72 80 117 142 147 45 22 60 24 156 20 94 -3 111 -7
153 -31z"/>
<path d="M36292 4529 c-364 -42 -673 -307 -777 -665 -89 -308 -62 -653 72
-902 167 -311 452 -496 763 -496 163 0 284 40 434 144 40 27 75 50 79 50 4 0
7 -15 7 -32 1 -45 33 -114 61 -128 28 -16 566 -8 618 9 19 6 48 24 65 40 l31
30 -6 143 c-4 79 -10 350 -14 603 -8 475 -1 659 31 874 18 123 13 165 -22 188
-49 31 -480 123 -581 123 -36 0 -46 -5 -66 -32 -14 -18 -31 -51 -38 -73 -7
-22 -14 -41 -15 -43 -1 -2 -37 21 -81 51 -157 107 -331 143 -561 116z m422
-723 c58 -34 131 -125 145 -182 14 -54 14 -158 1 -206 -17 -61 -90 -149 -151
-183 -46 -25 -68 -30 -146 -33 -111 -5 -157 13 -233 90 -75 77 -95 125 -95
233 1 78 4 97 28 145 37 72 80 117 142 147 45 22 60 24 156 20 94 -3 111 -7
153 -31z"/>
<path d="M41230 4530 c-109 -13 -190 -38 -305 -95 -124 -62 -229 -143 -305
-238 -72 -88 -163 -280 -190 -397 -28 -119 -38 -368 -21 -491 33 -230 128
-423 289 -587 120 -122 247 -195 412 -239 87 -22 254 -23 340 0 85 23 211 84
280 136 30 22 58 41 62 41 5 0 8 -12 8 -27 0 -16 11 -51 24 -80 18 -38 32 -54
51 -59 41 -10 565 3 605 15 20 6 50 25 67 43 l31 33 -10 210 c-15 325 -5 1245
15 1370 23 142 22 187 -6 213 -37 35 -471 132 -588 132 -48 0 -80 -29 -105
-98 -10 -26 -19 -49 -20 -50 -1 -2 -32 17 -69 43 -156 112 -337 152 -565 125z
m413 -719 c42 -26 109 -97 134 -142 14 -27 18 -56 18 -144 0 -96 -3 -116 -23
-155 -57 -108 -143 -163 -267 -168 -113 -5 -153 8 -224 74 -86 79 -116 145
-115 249 0 59 6 93 22 128 31 70 87 133 145 162 49 25 58 26 164 22 91 -3 117
-8 146 -26z"/>
<path d="M14000 4499 c-85 -16 -229 -41 -320 -55 -202 -30 -237 -39 -250 -64
-15 -28 -12 -93 10 -210 35 -191 42 -325 47 -970 5 -711 -1 -655 82 -687 40
-16 82 -18 336 -18 287 0 290 0 323 23 17 13 38 33 45 45 9 17 13 158 15 584
l4 563 42 35 c65 53 131 79 203 79 73 1 107 -19 138 -80 18 -37 20 -72 30
-614 5 -316 14 -581 19 -589 24 -37 74 -44 353 -49 297 -5 343 0 402 45 l34
26 -6 728 c-4 455 -11 754 -18 800 -26 171 -156 325 -328 390 -105 39 -187 51
-326 46 -172 -5 -238 -29 -522 -189 l-51 -29 -12 73 c-15 88 -33 126 -66 138
-14 6 -26 10 -27 9 -1 0 -72 -14 -157 -30z"/>
<path d="M33680 4494 c-102 -18 -250 -43 -330 -55 -245 -36 -244 -33 -206
-259 40 -242 47 -373 53 -1015 5 -586 6 -601 26 -622 40 -44 74 -48 387 -48
273 0 297 1 323 19 62 42 60 27 65 639 l4 559 57 44 c135 107 294 95 332 -25
8 -24 14 -222 18 -603 7 -634 2 -593 80 -620 40 -14 585 -19 633 -6 14 5 40
20 57 34 l31 26 0 707 c0 430 -4 740 -10 791 -22 175 -129 325 -283 399 -112
54 -222 74 -372 68 -158 -5 -211 -22 -421 -132 -79 -42 -149 -73 -154 -70 -6
3 -10 19 -10 34 0 51 -30 129 -57 150 -14 12 -28 21 -32 20 -3 0 -89 -16 -191
-35z"/>
<path d="M1709 4439 c-21 -21 -22 -27 -15 -148 4 -69 11 -171 16 -226 5 -55
12 -420 16 -811 l7 -710 36 -24 c36 -24 36 -24 336 -24 306 -1 367 5 395 39
10 12 16 207 26 828 7 446 18 859 24 916 9 92 9 107 -7 140 l-18 36 -397 3
c-396 2 -398 2 -419 -19z"/>
<path d="M29766 4444 c-28 -28 -30 -65 -11 -269 14 -162 19 -337 23 -913 l4
-713 36 -27 35 -27 306 0 c330 0 384 7 401 48 5 12 14 376 20 812 5 435 15
848 22 918 11 122 10 129 -9 155 l-20 27 -396 3 c-349 2 -397 0 -411 -14z"/>
</g>
</svg>
