<?xml version="1.0" standalone="no"?>
<!DOCTYPE svg PUBLIC "-//W3C//DTD SVG 20010904//EN"
 "http://www.w3.org/TR/2001/REC-SVG-20010904/DTD/svg10.dtd">
<svg version="1.0" xmlns="http://www.w3.org/2000/svg"
 width="501.000000pt" height="498.000000pt" viewBox="0 0 501.000000 498.000000"
 preserveAspectRatio="xMidYMid meet">

<g transform="translate(0.000000,498.000000) scale(0.100000,-0.100000)"
fill="#000000" stroke="none">
<path d="M1560 3648 c-50 -17 -104 -76 -119 -130 -45 -158 116 -297 264 -229
138 62 152 253 25 337 -43 29 -119 38 -170 22z m127 -103 c34 -24 47 -76 29
-120 -29 -68 -130 -81 -171 -22 -25 36 -19 100 11 131 31 30 95 36 131 11z"/>
<path d="M3358 3545 c-170 -62 -215 -288 -81 -406 50 -44 96 -61 164 -60 99 0
174 48 215 136 46 98 28 195 -49 270 -74 72 -160 93 -249 60z m124 -85 c45
-13 95 -68 104 -115 9 -49 -19 -119 -58 -147 -47 -33 -124 -36 -168 -6 -84 56
-93 166 -18 235 43 40 81 49 140 33z"/>
<path d="M2297 3255 c-196 -37 -381 -151 -501 -308 -355 -469 -143 -1133 419
-1306 245 -76 551 -20 742 135 23 19 45 34 50 34 16 0 195 -188 189 -198 -15
-24 28 -83 140 -194 70 -68 131 -119 147 -123 63 -16 126 45 113 109 -4 21
-41 66 -119 146 -120 123 -159 153 -194 147 -16 -3 -43 18 -114 89 l-93 93 32
43 c199 267 231 600 85 893 -45 91 -87 146 -165 221 -109 104 -211 162 -360
204 -97 28 -267 35 -371 15z m388 -118 c116 -38 199 -90 295 -187 98 -97 155
-194 191 -326 30 -106 30 -266 1 -376 -65 -240 -244 -430 -487 -515 -73 -25
-92 -27 -225 -27 -130 0 -153 3 -225 27 -223 74 -401 251 -474 471 -135 409
103 841 523 948 107 27 294 20 401 -15z"/>
<path d="M2087 2712 c-25 -27 -21 -43 18 -84 19 -20 35 -41 35 -45 0 -5 -16
-24 -35 -43 -36 -35 -44 -67 -23 -88 21 -21 53 -13 88 23 19 19 39 35 45 35 6
0 26 -16 45 -35 38 -39 74 -45 90 -15 15 28 6 50 -35 90 l-34 33 39 43 c46 50
49 67 16 89 -29 19 -46 13 -90 -34 l-29 -31 -43 40 c-49 45 -63 48 -87 22z"/>
<path d="M2577 2712 c-25 -27 -21 -44 18 -82 19 -19 35 -39 35 -45 0 -6 -16
-26 -35 -45 -36 -35 -44 -67 -23 -88 21 -21 53 -13 88 23 19 19 39 35 45 35 6
0 26 -16 45 -35 38 -39 74 -45 90 -16 15 30 13 38 -25 80 -19 21 -35 43 -35
48 0 5 16 24 35 43 41 40 44 64 11 85 -29 19 -46 13 -90 -34 l-29 -31 -43 40
c-49 45 -63 48 -87 22z"/>
<path d="M2042 2274 c-27 -18 -28 -45 -4 -67 14 -13 38 -17 100 -17 l82 0 0
-96 c0 -79 4 -102 20 -129 38 -61 123 -82 190 -46 55 29 74 71 78 178 l4 93
178 0 c159 0 179 2 193 18 22 24 21 38 -3 62 -19 19 -33 20 -418 20 -344 0
-401 -2 -420 -16z m368 -166 c0 -62 -4 -86 -17 -100 -20 -22 -41 -23 -65 -1
-15 13 -18 31 -18 100 l0 83 50 0 50 0 0 -82z"/>
<path d="M1642 1588 c-7 -7 -12 -29 -12 -50 0 -37 -1 -38 -38 -38 -43 0 -62
-14 -62 -45 0 -31 19 -45 62 -45 38 0 38 0 38 -40 0 -33 4 -42 24 -51 39 -18
66 3 66 51 0 40 0 40 40 40 33 0 42 4 51 24 18 39 -3 66 -51 66 -40 0 -40 0
-40 40 0 29 -5 42 -19 50 -26 13 -44 13 -59 -2z"/>
</g>
</svg>
