<svg width="22" height="23" viewBox="0 0 22 23" fill="none" xmlns="http://www.w3.org/2000/svg">
<path d="M10.4894 21.9303C4.70744 21.9303 0 17.0094 0 10.9652C0 4.92095 4.70744 0 10.4894 0C16.2714 0 20.9788 4.92095 20.9788 10.9652C20.9788 17.0094 16.2714 21.9303 10.4894 21.9303ZM10.4894 1.60466C5.54659 1.60466 1.53503 5.80886 1.53503 10.9652C1.53503 16.1215 5.54659 20.3257 10.4894 20.3257C15.4322 20.3257 19.4438 16.1215 19.4438 10.9652C19.4438 5.80886 15.4322 1.60466 10.4894 1.60466Z" fill="#292D32"/>
<path d="M21.235 23C21.0406 23 20.8461 22.9251 20.6926 22.7647L18.6459 20.6251C18.3491 20.3149 18.3491 19.8014 18.6459 19.4912C18.9427 19.1809 19.4339 19.1809 19.7307 19.4912L21.7774 21.6307C22.0742 21.9409 22.0742 22.4544 21.7774 22.7647C21.6239 22.9251 21.4294 23 21.235 23Z" fill="#292D32"/>
</svg>
