<svg width="40" height="40" viewBox="0 0 40 40" fill="none" xmlns="http://www.w3.org/2000/svg">
<g id="&#240;&#159;&#166;&#134; icon &#34;receipt edit&#34;">
<g id="Group">
<path id="Vector" d="M16.3766 40C15.8918 40 15.4279 39.8067 15.1119 39.42L12.9831 36.8101C12.5405 36.2687 11.9504 35.9594 11.3181 35.9207C10.6648 35.8821 10.0535 36.1527 9.54764 36.6361C6.49155 39.6327 4.17316 39.3813 3.05611 38.9947C1.91798 38.5887 0 37.2547 0 32.9628V11.1938C0 2.60998 2.69779 0 11.5288 0H27.4417C36.2728 0 38.9705 2.60998 38.9705 11.1938V19.4297C38.9705 20.2223 38.2539 20.8797 37.3898 20.8797C36.5257 20.8797 35.8091 20.2223 35.8091 19.4297V11.1938C35.8091 4.21462 34.4813 2.89995 27.4417 2.89995H11.5288C4.48929 2.89995 3.16147 4.21462 3.16147 11.1938V32.9628C3.16147 34.9927 3.70946 36.1141 4.21529 36.2881C4.59467 36.4234 5.62746 36.2301 7.22927 34.6641C8.38848 33.5428 9.90596 32.9435 11.4867 33.0208C13.0464 33.0981 14.5217 33.8521 15.5122 35.0701L17.662 37.68C18.1889 38.318 18.0414 39.2267 17.3459 39.71C17.0297 39.9227 16.6927 40 16.3766 40Z" fill="black"/>
<path id="Vector_2" d="M27.8853 12.5665H11.0241C10.16 12.5665 9.44336 11.9091 9.44336 11.1165C9.44336 10.3238 10.16 9.6665 11.0241 9.6665H27.8853C28.7494 9.6665 29.466 10.3238 29.466 11.1165C29.466 11.9091 28.7494 12.5665 27.8853 12.5665Z" fill="black"/>
<path id="Vector_3" d="M25.7784 20.2997H13.1325C12.2684 20.2997 11.5518 19.6423 11.5518 18.8497C11.5518 18.057 12.2684 17.3997 13.1325 17.3997H25.7784C26.6425 17.3997 27.3591 18.057 27.3591 18.8497C27.3591 19.6423 26.6425 20.2997 25.7784 20.2997Z" fill="black"/>
<path id="Vector_4" d="M25.397 39.6909C24.5961 39.6909 23.8374 39.4202 23.2894 38.9175C22.636 38.3182 22.3409 37.4482 22.4885 36.5396L22.8889 33.9296C22.9943 33.253 23.4369 32.441 23.9638 31.9577L31.4249 25.1138C32.4366 24.1858 33.4271 23.7025 34.502 23.6058C35.8088 23.4898 37.1155 23.9924 38.338 25.1138C39.5604 26.2351 40.1084 27.4144 39.9819 28.6324C39.8765 29.599 39.3286 30.527 38.338 31.455L30.8769 38.2989C30.35 38.7822 29.4648 39.1882 28.7271 39.2849L25.8816 39.6522C25.7129 39.6715 25.5656 39.6909 25.397 39.6909ZM34.8603 26.4864C34.8393 26.4864 34.8182 26.4864 34.7971 26.4864C34.502 26.5057 34.1016 26.7571 33.659 27.1631L26.1979 34.0069C26.1347 34.0649 26.0293 34.2583 26.0293 34.3356L25.6499 36.7522L28.2845 36.4042C28.3688 36.3849 28.5793 36.2882 28.6426 36.2302L36.1039 29.3864C36.5465 28.961 36.8205 28.613 36.8415 28.3424C36.8837 27.9557 36.4622 27.4917 36.1039 27.1631C35.7666 26.8537 35.2819 26.4864 34.8603 26.4864Z" fill="black"/>
<path id="Vector_5" d="M36.1479 32.8659C36.0004 32.8659 35.8528 32.8466 35.7264 32.8079C32.9443 32.0926 30.7313 30.0626 29.9514 27.5107C29.7196 26.7373 30.2043 25.9447 31.0474 25.7127C31.8905 25.5 32.7546 25.9447 32.9864 26.718C33.4712 28.3033 34.8412 29.56 36.5694 30.0046C37.4125 30.2173 37.8973 31.0293 37.6654 31.8026C37.4757 32.4406 36.8434 32.8659 36.1479 32.8659Z" fill="black"/>
</g>
</g>
</svg>
